<?xml version="1.0" encoding="UTF-8" standalone="no"?>
<!-- Created with Inkscape (http://www.inkscape.org/) -->

<svg
   version="1.1"
   id="svg1"
   width="391.79105"
   height="268"
   viewBox="0 0 391.79105 268"
   xmlns="http://www.w3.org/2000/svg"
   xmlns:svg="http://www.w3.org/2000/svg">
  <defs
     id="defs1" />
  <g
     id="g1"
     transform="translate(-135.20896,-390)">
    <path
       style="fill:#050609;fill-opacity:1"
       d="m 296.5,589 19.51738,1 -0.51738,-107 -45.28255,98.3645 14.57046,6.33979 -65.28791,59.29773 0.64587,-87.99806 13.1396,7.912 L 303.50002,443 l -6.48783,-11 -57.35989,66.13005 -5.87394,-21.12132 -23.01022,20.80263 13.23188,16.38855 -8.49997,26.28615 -28.82215,12.52513 11.47765,-30.9511 L 178.73092,497 h -26.33364 l -17.18832,4.5 10.31108,-28 39.11932,-0.54108 8.86064,9.87467 16.48765,-18.17921 L 194.8237,460.50007 270,390 h 120.68586 l 76.2566,69.28398 -20.13908,2.39936 22.81531,21.3975 L 478.11905,473 h 38.62874 l 10.2522,28.78285 -15.5,-4.78258 L 483.34147,497 463.95205,520.94228 476.75926,554.5 447.49999,542.11635 438.268,514.34517 452.22603,498.95111 427.22075,477.01237 423.36759,498.78428 405.45547,479.30699 366.14136,432 358.801,443 428.5,568.95839 441.08276,561.61368 441.5,648.5 379,588.0171 392.44384,582.81982 347,483 v 107 l 21.08673,-1 -36.82751,69 z"
       id="path1" />
  </g>
</svg>
